<svg xmlns="http://www.w3.org/2000/svg" width="78" height="78" viewBox="0 0 78 78" fill="none">
  <path d="M38.6507 38.6069C36.4747 16.1948 42.3024 11.7759 47.9455 12.3022C53.4445 12.8151 54.0981 19.8373 50.5885 24.1017L38.6507 38.6069L26.7129 53.1122C23.2033 57.3765 23.8569 64.3987 29.3559 64.9116C34.999 65.4379 40.8268 61.019 38.6507 38.6069Z" fill="#DBFDE4"/>
  <path d="M38.5606 38.6571C16.1084 40.3705 11.8106 34.4529 12.4532 28.8218C13.0793 23.3346 20.1135 22.8259 24.3046 26.4227L38.5606 38.6571L52.8166 50.8915C57.0077 54.4882 64.0419 53.9796 64.668 48.4923C65.3106 42.8613 61.0128 36.9437 38.5606 38.6571Z" fill="#BCEFF2"/>
  <circle cx="38.6323" cy="38.688" r="4.14045" transform="rotate(15.0291 38.6323 38.688)" fill="#FEFFBC"/>
</svg>